inDegrees=no
num_controls=7
num_derivatives=13
num_iterations=189
num_multipliers=7
num_parameters=0
num_slacks=7
num_states=26
objective=0.494037
objective_accelerations=0.011007
objective_balance=0.003923
objective_effort=0.016968
objective_height=0.360946
objective_ligament=0.101193
solver_duration=2232.628478
status=Solve_Succeeded
success=true
DataType=double
version=3
OpenSimVersion=4.5
endheader
time	/jointset/ground_pelvis/pelvis_tilt/value	/jointset/ground_pelvis/pelvis_tx/value	/jointset/ground_pelvis/pelvis_ty/value	/jointset/hip_l/hip_flexion_l/value	/jointset/hip_l/hip_adduction_l/value	/jointset/hip_l/hip_rotation_l/value	/jointset/back/lumbar_extension/value	/jointset/patellofemoral_l/patellar_flexion_l/value	/jointset/knee_l/knee_flexion_l/value	/jointset/knee_l/knee_adduction_l/value	/jointset/knee_l/knee_rotation_l/value	/jointset/ankle_l/ankle_angle_l/value	/jointset/subtalar_l/subtalar_angle_l/value	/jointset/ground_pelvis/pelvis_tilt/speed	/jointset/ground_pelvis/pelvis_tx/speed	/jointset/ground_pelvis/pelvis_ty/speed	/jointset/hip_l/hip_flexion_l/speed	/jointset/hip_l/hip_adduction_l/speed	/jointset/hip_l/hip_rotation_l/speed	/jointset/back/lumbar_extension/speed	/jointset/patellofemoral_l/patellar_flexion_l/speed	/jointset/knee_l/knee_flexion_l/speed	/jointset/knee_l/knee_adduction_l/speed	/jointset/knee_l/knee_rotation_l/speed	/jointset/ankle_l/ankle_angle_l/speed	/jointset/subtalar_l/subtalar_angle_l/speed	/forceset/tau_hip_flexion_l	/forceset/tau_hip_adduction_l	/forceset/tau_hip_rotation_l	/forceset/tau_knee_flexion_l	/forceset/tau_ankle_angle_l	/forceset/tau_subtalar_angle_l	/forceset/tau_lumbar_extension	lambda_cid13_p0	lambda_cid13_p1	lambda_cid13_p2	lambda_cid13_p3	lambda_cid13_p4	lambda_cid13_p5	lambda_cid14_p0	/jointset/ground_pelvis/pelvis_tilt/accel	/jointset/ground_pelvis/pelvis_tx/accel	/jointset/ground_pelvis/pelvis_ty/accel	/jointset/hip_l/hip_flexion_l/accel	/jointset/hip_l/hip_adduction_l/accel	/jointset/hip_l/hip_rotation_l/accel	/jointset/back/lumbar_extension/accel	/jointset/patellofemoral_l/patellar_flexion_l/accel	/jointset/knee_l/knee_flexion_l/accel	/jointset/knee_l/knee_adduction_l/accel	/jointset/knee_l/knee_rotation_l/accel	/jointset/ankle_l/ankle_angle_l/accel	/jointset/subtalar_l/subtalar_angle_l/accel	gamma_cid13_p0	gamma_cid13_p1	gamma_cid13_p2	gamma_cid13_p3	gamma_cid13_p4	gamma_cid13_p5	gamma_cid14_p0
1	-0.04659646107525563	-0.05666898816016428	0.8720062792529544	0.652913963211489	-0.2809207118830034	-0.2296995484310878	-0.9599310859488867	0.5371936676941631	0.537193667694173	-0.06032579965118794	-0.1745316659810584	-0.01655617850851059	0.009193177831086689	0.1281230507263031	0.0279140430256375	0.04112705763399361	-0.2702017678374126	0.02503154320987096	-0.05472719802650607	-0.002686145093640583	-0.1441088966109125	-0.1441088966109093	0.01968271650213081	-4.868344614632606e-06	0.0005122144022657215	0.02660653321642844	-0.3043542367711453	0.04435793172830318	-0.007113968364713178	-0.1035640690468438	0.07468146744067095	0.0606365615348318	0.3743326440124468	-21.84968876988195	-23.85770091209919	4.890104522851454	3.676775657038269	-731.0416282148783	-81.20101346572609	-22.47666266983765	0.9252941954782544	0.191305016930549	0.3271690026271303	-2.104822864589416	0.2806965654834191	-0.5341820556469375	0.4952640407235683	-1.349960512971763	-1.349960512971768	0.2755650072937495	0.002830677921669142	-0.1273919278129214	0.2507551061554495	-4.557167109305881e-09	-1.800426572056839e-09	8.059238200772164e-09	4.600522787727241e-09	-2.016975505311273e-08	1.424150418928648e-09	-1.49441712638264e-09
1.01	-0.04526983517604479	-0.05638007779752958	0.8724337873395431	0.6501076975180813	-0.2806562844469258	-0.2302735636574294	-0.9599310493478946	0.5356854605366699	0.5356854605366934	-0.06011492105285305	-0.1745316476229853	-0.01655708107343977	0.009471981816310267	0.1371652056809464	0.02989111035775292	0.0443735343943665	-0.2910417652151813	0.02785245117395614	-0.06007376350071228	0.002850811831350442	-0.1575372181609614	-0.1575372181609576	0.02248413265271992	7.718677443936554e-06	-0.0006696637740872032	0.02916081665856323	-0.3046960165724527	0.04451679922176475	-0.007124976841639254	-0.1030517184271363	0.07468860744727655	0.06068479692164081	0.3753270803302877	-21.87359997947272	-23.88224955293869	4.902912533842172	3.342423853165196	-731.776142899436	-81.2890666277379	-22.50416618886936	0.8881374046309722	0.2043710626788905	0.3232284440041056	-2.07214809626786	0.28256408767151	-0.5345833131141334	0.6065134999976951	-1.339970067193978	-1.33997006719388	0.2810990604022711	0.00035167179132549	-0.1101268481357018	0.2587473327357804	-6.307107983014195e-09	-3.380841976405998e-09	1.025352542318126e-08	6.692757031548183e-09	-2.38396448053471e-08	3.953470809464585e-10	-1.993951277480682e-09
1.02	-0.04385389547545302	-0.0560707040673083	0.872893728479988	0.6470933198665163	-0.2803636926960476	-0.2309009824424741	-0.9598709227813702	0.5340428297454408	0.5340428297454793	-0.05987629446471993	-0.1745315276032038	-0.01656911063725063	0.009776525109853886	0.145985811002534	0.03200671654295049	0.04761366840521154	-0.3118241594688406	0.03066440617005833	-0.06540790976718504	0.009331848020774594	-0.1709936233579115	-0.1709936233579071	0.02523231446173945	1.546399723752721e-05	-0.00171318537400871	0.03175439488042924	-0.3050377963737605	0.04467566671522655	-0.007135985318565597	-0.1025393678074293	0.07469574745388198	0.06073303230845002	0.3763215166481284	-21.90577073760809	-23.9056863175695	4.915925122430051	3.021635190236652	-732.6388985913857	-81.39073521353396	-22.533764081912	0.8809842688670856	0.2190127875470104	0.3259004527215623	-2.093302239767567	0.2789059718868128	-0.5316982141002441	0.6840798936102362	-1.355577242352022	-1.355577242352026	0.264918138979818	0.001862337468672123	-0.09972061252660083	0.2586140621017021	-6.761885546085096e-09	-3.931660676306779e-09	1.077203886017724e-08	7.215807223991946e-09	-2.559061310657605e-08	3.921866506117902e-10	-2.145039166007602e-09
1.03	-0.04235095600746543	-0.05573945619137117	0.8733860257172101	0.6438715007284662	-0.2800430359066827	-0.2315816522713954	-0.9597410890452237	0.5322655158271253	0.5322655158271566	-0.05961048122372175	-0.1745313455844335	-0.01659085944977244	0.01010719903755329	0.1545545674822249	0.0342686319319384	0.05084335749197492	-0.3325201475696519	0.03346470849207438	-0.07072254586755637	0.01681119293834998	-0.1844720731741487	-0.1844720731741454	0.02791943891707438	2.0033276586993e-05	-0.002611134771576139	0.03438702052470202	-0.3052548181187373	0.04476006948878857	-0.007151343305364471	-0.1020713247898094	0.0748437128582204	0.06079028525995358	0.3772840377686961	-21.88377290134573	-23.94092978272496	4.928999133783194	2.628911646765419	-733.399119890405	-81.52150027009183	-22.56536270245371	0.8376938514964639	0.2336484554176759	0.321134429688057	-2.054819848070348	0.280256150795792	-0.5308221648374096	0.8063058502767994	-1.344415322182301	-1.344415322182432	0.2689749159144105	-0.0003793531720105206	-0.08101649311575559	0.2665808112380887	-7.20344715700663e-09	-4.471973287386651e-09	1.127345256466899e-08	7.722845334278792e-09	-2.732200057667229e-08	3.994919642327146e-10	-2.292571480426651e-09
